<?xml version="1.0" encoding="utf-8" ?>
<svg xmlns="http://www.w3.org/2000/svg" xmlns:xlink="http://www.w3.org/1999/xlink" width="872.5" height="872.5">
	<path fill="#1B2023" transform="matrix(1.72117 0 0 1.72261 0.000244141 0)" d="M0 0L275.786 0L307.967 0L580.504 0C581.263 1.32946 580.999 3.30172 580.999 4.81512L581.005 338.897L581.001 406.168C581 409.443 581.485 426.425 580.824 428.383C580.754 428.589 580.607 428.819 580.504 429L306.905 429L277.782 429L0 429L0 0ZM0 0L0 429L277.782 429C271.937 427.024 264.76 427.369 258.613 426.474C249.982 425.217 240.869 423.027 232.453 420.706C206.796 413.633 178.753 398.908 158.176 382.048C150.911 376.096 144.257 369.564 137.643 362.914C130.623 355.857 121.355 345.839 116.456 337.222C113.796 333.495 110.466 330.276 107.719 326.59C103.195 320.517 98.8085 312.908 96.3287 305.751C95.14 302.32 94.3874 298.761 93.1912 295.334C88.0256 284.419 84.8175 271.115 82.3118 259.325Q81.7477 256.724 81.2485 254.11Q80.7493 251.496 80.3152 248.87Q79.8811 246.244 79.5125 243.608Q79.1439 240.973 78.8409 238.329Q78.538 235.684 78.3008 233.034Q78.0637 230.383 77.8926 227.727Q77.7215 225.071 77.6165 222.412Q77.5115 219.752 77.4726 217.091Q77.4338 214.43 77.4611 211.769Q77.4884 209.107 77.582 206.448Q77.6755 203.788 77.8351 201.131Q77.9947 198.475 78.2204 195.823Q78.446 193.171 78.7376 190.526Q79.0291 187.88 79.3863 185.243Q79.7435 182.605 80.1662 179.978Q80.5889 177.35 81.0769 174.734Q81.5648 172.118 82.1176 169.514Q82.6704 166.911 83.2878 164.322Q83.9052 161.733 84.5868 159.161Q85.2684 156.588 86.0138 154.033Q86.7591 151.478 87.5678 148.943Q88.3764 146.407 89.2479 143.893Q90.1194 141.378 91.0531 138.886Q91.9869 136.394 92.9823 133.925Q93.9777 131.457 95.0342 129.014Q96.0907 126.572 97.2076 124.156Q98.3245 121.741 99.5012 119.353Q100.678 116.966 101.913 114.609Q103.149 112.252 104.443 109.926Q105.737 107.601 107.088 105.308Q108.44 103.015 109.847 100.757Q111.255 98.4986 112.719 96.2759Q114.053 94.237 115.433 92.2292Q116.814 90.2213 118.239 88.2456Q119.665 86.2699 121.136 84.3273Q122.607 82.3848 124.122 80.4764Q125.636 78.568 127.194 76.6948Q128.753 74.8216 130.353 72.9845Q131.954 71.1475 133.596 69.3476Q135.238 67.5476 136.921 65.7858Q138.604 64.0239 140.327 62.301Q142.049 60.5781 143.811 58.8951Q145.573 57.2121 147.373 55.5699Q149.173 53.9276 151.009 52.327Q152.846 50.7264 154.719 49.1683Q156.593 47.6102 158.501 46.0953Q160.409 44.5805 162.351 43.1097Q164.294 41.6389 166.269 40.213Q168.245 38.7871 170.253 37.4067Q172.26 36.0264 174.299 34.6924Q176.338 33.3584 178.407 32.0714Q180.475 30.7844 182.573 29.5451Q184.671 28.3058 186.796 27.1149Q188.921 25.9239 191.074 24.7819Q193.226 23.6399 195.403 22.5475Q197.581 21.455 199.783 20.4127Q201.986 19.3704 204.211 18.3788Q206.436 17.3872 208.684 16.4468Q210.931 15.5064 213.2 14.6177Q215.468 13.729 217.757 12.8924Q220.045 12.0558 222.352 11.2719Q224.658 10.4879 226.982 9.75696Q229.306 9.02601 231.647 8.34845Q233.987 7.67088 236.342 7.04707Q248.777 3.67134 261.545 1.94271C266.287 1.25514 271.094 0.989411 275.786 0L0 0ZM307.967 0C312.893 0.921301 317.805 0.978172 322.736 1.70524C330.959 2.91772 339.244 4.9554 347.275 7.10175Q351.01 8.08897 354.706 9.21127Q358.402 10.3336 362.055 11.5895Q365.708 12.8454 369.313 14.2332Q372.918 15.621 376.47 17.139Q380.022 18.6569 383.517 20.3029Q387.011 21.9489 390.444 23.7209Q393.876 25.4928 397.242 27.3884Q400.608 29.2839 403.903 31.3005Q407.198 33.3171 410.417 35.4521Q413.636 37.5872 416.776 39.8378Q419.916 42.0884 422.971 44.4516Q426.027 46.8149 428.995 49.2876Q431.963 51.7603 434.839 54.3393Q437.715 56.9183 440.496 59.6001Q443.276 62.2819 445.957 65.0629Q448.639 67.844 451.217 70.7207C455.476 75.495 459.726 79.901 463.357 85.2213C463.856 85.9523 464.508 86.7412 464.615 87.6441C466.137 88.4825 467.359 90.4638 468.594 91.7136C477.305 100.531 483.966 109.825 487.454 121.876C488.067 123.995 488.372 126.215 489.018 128.312C489.332 129.333 489.971 130.36 490.208 131.376C490.314 131.826 490.286 132.112 490.11 132.53C491.683 134.303 492.186 137.407 493.114 139.585C502.491 161.577 507.977 196.966 506.606 220.608C504.772 252.222 498.647 280.183 484.615 308.72C481.345 315.369 477.929 321.936 473.957 328.197C471.35 332.306 468.429 336.261 465.591 340.212C460.134 347.811 454.224 354.812 447.876 361.673C445.26 364.5 442.824 367.291 439.933 369.854C434.472 374.697 429.149 379.718 423.369 384.187Q420.974 386.013 418.531 387.773Q416.087 389.532 413.597 391.225Q411.107 392.918 408.571 394.542Q406.036 396.167 403.457 397.721Q400.878 399.276 398.258 400.76Q395.638 402.244 392.978 403.657Q390.319 405.069 387.622 406.408Q384.925 407.748 382.193 409.013Q379.461 410.279 376.695 411.47Q373.929 412.66 371.132 413.776Q368.335 414.891 365.509 415.929Q362.682 416.968 359.829 417.929Q356.975 418.891 354.097 419.774Q351.218 420.658 348.316 421.462Q345.415 422.267 342.492 422.993Q339.57 423.718 336.629 424.364C331.635 425.444 326.522 426.56 321.455 427.215C316.585 427.843 311.737 428.06 306.905 429L580.504 429C580.607 428.819 580.754 428.589 580.824 428.383C581.485 426.425 581 409.443 581.001 406.168L581.005 338.897L580.999 4.81512C580.999 3.30172 581.263 1.32946 580.504 0L307.967 0Z"/>
	<path fill="#C7CBD0" transform="matrix(1.72117 0 0 1.72261 0.000244141 0)" d="M469.974 159.88L470.464 160.129C470.463 160.404 470.468 160.632 470.377 160.897C469.495 163.464 464.616 170.763 462.233 172.153C461.512 171.157 463.04 168.041 462.349 166.413C465.216 165.276 467.89 162.133 469.974 159.88Z"/>
	<path fill="#C7CBD0" transform="matrix(1.72117 0 0 1.72261 0.000244141 0)" d="M134.919 182.954C135.169 183.023 135.446 183.027 135.669 183.16C136.09 183.411 140.965 189.115 142.376 190.324C141.396 191.139 140.445 191.995 139.484 192.833L137.134 191.985Q132.655 190.214 128.207 188.366C130.386 186.49 132.658 184.729 134.919 182.954Z"/>
	<path fill="#C7CBD0" transform="matrix(1.72117 0 0 1.72261 0.000244141 0)" d="M196.37 251.038C196.538 251.114 196.708 251.227 196.835 251.362C198.222 252.832 198.953 259.326 198.914 261.383C198.898 262.259 198.855 262.796 198.218 263.415C196.185 263.861 193.809 262.452 191.963 261.653C190.174 260.842 188.366 260.258 186.494 259.682Q191.401 255.325 196.37 251.038Z"/>
	<path fill="#C7CBD0" transform="matrix(1.72117 0 0 1.72261 0.000244141 0)" d="M456.325 317.35L456.813 317.555C457.031 318.469 456.486 319.428 456.055 320.215Q455.546 321.127 454.993 322.014Q454.44 322.901 453.845 323.76Q453.251 324.619 452.616 325.449Q451.98 326.278 451.306 327.076Q450.632 327.874 449.92 328.639Q449.208 329.404 448.46 330.134Q447.712 330.863 446.93 331.556Q446.148 332.249 445.334 332.904Q444.519 333.558 443.674 334.173Q442.83 334.788 441.956 335.361Q441.083 335.934 440.183 336.465Q439.283 336.996 438.358 337.483Q437.434 337.97 436.487 338.412Q435.541 338.854 434.574 339.25Q433.607 339.646 432.622 339.995Q431.637 340.344 430.637 340.645L430.444 340.292C432.823 337.887 435.695 335.839 438.294 333.668Q444.132 328.707 449.862 323.623C452.034 321.709 454.644 319.718 456.325 317.35Z"/>
	<path fill="#C7CBD0" transform="matrix(1.72117 0 0 1.72261 0.000244141 0)" d="M399.769 87.9407L400.161 88.1024C399.862 89.1476 368.871 115.544 364.735 118.921L364.303 118.771L364.269 118.2C365.806 115.549 367.935 113.074 369.832 110.672C378.658 99.5034 386.867 93.7036 399.769 87.9407Z"/>
	<path fill="#C7CBD0" transform="matrix(1.72117 0 0 1.72261 0.000244141 0)" d="M140.255 118.081C140.382 118.106 140.581 118.307 140.684 118.389C139.438 120.404 129.85 127.657 127.157 129.991C121.946 134.51 116.846 139.161 111.669 143.721L111.433 143.747L111.132 143.437C111.335 140.852 113.237 137.802 114.619 135.624C120.339 126.609 129.88 120.378 140.255 118.081Z"/>
	<path fill="#C7CBD0" transform="matrix(1.72117 0 0 1.72261 0.000244141 0)" d="M130.999 161.988C131.102 162.176 131.248 162.346 131.309 162.552C131.5 163.2 131.247 164.646 131.241 165.414C131.216 168.567 131.22 171.76 132.088 174.812C128.178 177.135 125.043 180.88 121.575 183.805L119.086 181.183C117.534 179.424 116.137 177.584 114.739 175.704L130.999 161.988Z"/>
	<path fill="#C7CBD0" transform="matrix(1.72117 0 0 1.72261 0.000244141 0)" d="M474.812 131.222C475.34 131.136 475.6 131.123 476.101 131.318C477.039 132.953 476.633 139.811 476.315 141.77C476.154 142.764 475.984 143.784 475.399 144.628C473.511 147.347 466.257 153.144 463.374 155.19C462.725 154.932 462.603 154.509 462.235 153.93C462.548 153.254 462.532 152.642 462.463 151.907C462.233 149.465 461.308 145.979 459.365 144.344C461.963 143.085 473.812 133.5 474.812 131.222Z"/>
	<path fill="#C7CBD0" transform="matrix(1.72117 0 0 1.72261 0.000244141 0)" d="M277.457 180.938C277.606 181.009 277.743 181.188 277.861 181.305C277.854 181.376 277.849 181.447 277.841 181.518C277.582 183.796 276.545 186.242 275.906 188.469C275.053 191.439 274.336 194.673 272.839 197.387C269.799 202.895 259.769 210.239 254.665 214.464L254.402 214.417L254.281 213.968C255.682 209.167 256.765 203.745 258.772 199.189C261.728 192.478 271.81 185.844 277.457 180.938Z"/>
	<path fill="#C7CBD0" transform="matrix(1.72117 0 0 1.72261 0.000244141 0)" d="M287.846 147.514C287.86 147.529 287.88 147.54 287.889 147.558C288.161 148.094 288.046 148.371 287.933 148.93C287.302 152.052 284.205 162.556 282.711 165.051C280.268 169.132 268.957 178.199 264.681 181.016L264.431 180.6C264.789 178.306 265.935 176.061 266.583 173.819C267.444 170.842 268.116 167.581 269.527 164.811C272.518 158.94 282.642 151.753 287.846 147.514Z"/>
	<path fill="#C7CBD0" transform="matrix(1.72117 0 0 1.72261 0.000244141 0)" d="M318.121 207.395L318.398 207.519C317.939 209.094 295.214 227.784 292.666 229.936C287.009 230.284 281.531 230.659 275.946 231.691L275.702 231.605L275.661 231.175C278.052 228.093 287.693 219.892 291.228 218.258C294.148 216.908 297.472 216.543 300.531 215.569C306.612 213.631 312.641 210.646 318.121 207.395Z"/>
	<path fill="#C7CBD0" transform="matrix(1.72117 0 0 1.72261 0.000244141 0)" d="M234.914 109.1L235.302 109.303C235.211 109.568 235.224 109.57 235.043 109.846C233.701 111.89 230.442 114 228.577 115.631C225.709 118.139 222.878 120.968 219.697 123.062C214.045 126.783 206.006 127.065 199.424 127.734L199.07 127.572L199.103 127.103C201.312 124.512 204.414 122.549 206.941 120.253C209.519 117.909 212.064 115.209 214.942 113.233C220.309 109.548 228.58 109.64 234.914 109.1Z"/>
	<path fill="#C7CBD0" transform="matrix(1.72117 0 0 1.72261 0.000244141 0)" d="M297.851 114.328C298.032 114.69 298.154 114.786 298.106 115.2C297.816 117.733 296.967 120.329 296.244 122.769C295.353 125.777 294.423 129.05 292.798 131.746C289.603 137.051 280 144.1 274.893 148.169L274.585 147.793C274.878 145.304 276.135 142.497 276.83 140.051C277.717 136.928 278.462 133.556 280.026 130.692C282.777 125.653 293.134 118.514 297.851 114.328Z"/>
	<path fill="#C7CBD0" transform="matrix(1.72117 0 0 1.72261 0.000244141 0)" d="M468.47 112.214C468.661 112.199 468.766 112.181 468.966 112.217C469.876 112.381 470.828 114.082 471.268 114.831C472.227 116.462 474.012 119.775 473.499 121.708L473.434 122.218C471.782 124.741 459.429 134.773 456.416 136.871C455.577 136.87 455.208 136.355 454.584 135.837C454.571 135.629 454.58 135.534 454.48 135.323C453.426 133.096 450.188 130.564 447.981 129.628C450.871 128.532 466.448 114.959 468.47 112.214Z"/>
	<path fill="#C7CBD0" transform="matrix(1.72117 0 0 1.72261 0.000244141 0)" d="M274.622 99.0725L274.991 99.3844C274.931 99.4985 274.817 99.7275 274.731 99.8441C273.35 101.706 268.969 104.737 266.999 106.504C252.906 119.146 252.321 119.608 233.54 122.454L233.096 122.267C233.122 122.045 233.115 121.964 233.24 121.743C234.385 119.734 237.84 117.648 239.603 116.089C243.154 112.95 246.635 109.358 250.65 106.809C256.121 103.334 267.984 100.91 274.622 99.0725Z"/>
	<path fill="#C7CBD0" transform="matrix(1.72117 0 0 1.72261 0.000244141 0)" d="M257.114 247.047C257.329 247.096 257.436 247.266 257.592 247.417C257.587 247.475 257.584 247.534 257.578 247.592C257.224 251.047 253.493 262.351 251.539 265.097C247.669 270.538 232.996 281.942 227.1 286.787L226.787 286.765L226.747 286.275C228.343 283.265 230.503 280.604 232.115 277.584C234.314 273.464 235.771 268.972 238.133 264.93C241.884 258.514 251.311 251.919 257.114 247.047Z"/>
	<path fill="#C7CBD0" transform="matrix(1.72117 0 0 1.72261 0.000244141 0)" d="M267.341 214.152L267.572 214.201C268.13 215.424 266.571 218.888 266.117 220.227Q271.482 220.272 276.844 220.074C273.287 222.252 270.106 225.366 266.95 228.083L250.055 242.808Q246.794 245.642 243.564 248.511C245.401 243.672 246.468 238.547 248.198 233.668C248.809 231.947 249.552 230.281 250.646 228.807C254.28 223.91 262.361 218.167 267.341 214.152Z"/>
	<path fill="#C7CBD0" transform="matrix(1.72117 0 0 1.72261 0.000244141 0)" d="M305.905 87.1019L306.198 87.174C306.596 87.7869 306.535 88.0673 306.411 88.7977C305.852 92.1161 304.577 96.2051 302.774 99.0227C299.684 103.85 289.143 112.052 284.134 115.738C285.039 113.368 285.754 110.991 286.422 108.545C283.951 109.443 281.44 110.22 278.935 111.015C276.171 111.848 273.357 112.56 270.575 113.329C276.163 109.221 281.236 104.575 286.38 99.9401C289.686 96.961 292.945 93.7232 296.728 91.3562C299.611 89.553 302.75 88.3285 305.905 87.1019Z"/>
	<path fill="#C7CBD0" transform="matrix(1.72117 0 0 1.72261 0.000244141 0)" d="M203.135 112.499C203.221 112.622 203.16 112.799 203.162 112.95C197.643 117.988 186.4 129.284 179.995 131.538C177.165 132.535 174.032 132.997 171.111 133.691Q165.707 135.023 160.423 136.773L160.218 136.639C160.955 134.962 183.745 115.949 186.797 113.504Q194.969 113.043 203.135 112.499Z"/>
	<path fill="#C7CBD0" transform="matrix(1.72117 0 0 1.72261 0.000244141 0)" d="M455.838 98.5917C456.56 98.5136 456.838 98.4106 457.513 98.7887C459.457 99.8766 463.476 103.291 464.13 105.421C463.687 106.998 444.569 123.5 442.402 124.53C441.66 124.883 440.491 124.272 439.757 124.003C437.919 121.967 432.567 121.385 429.886 120.993C432.67 119.811 455.035 100.487 455.838 98.5917Z"/>
	<path fill="#C7CBD0" transform="matrix(1.72117 0 0 1.72261 0.000244141 0)" d="M367.312 151.784C367.407 151.915 367.452 152.198 367.498 152.358C366.365 155.169 364.453 157.676 363.127 160.42C360.751 165.338 358.811 170.947 355.598 175.381C352.767 179.29 348.118 182.322 344.45 185.466Q336.84 192.111 329.131 198.641C328.9 198.417 328.998 198.569 328.942 198.132C331.656 194.294 334.376 190.644 336.261 186.305C337.747 182.887 338.653 179.064 340.587 175.864C343.433 171.157 349.452 167.239 353.603 163.676L367.312 151.784Z"/>
	<path fill="#C7CBD0" transform="matrix(1.72117 0 0 1.72261 0.000244141 0)" d="M345.058 195.13L345.44 195.351C345.127 196.548 344.298 197.717 343.642 198.762C341.373 202.377 338.382 205.734 335.285 208.659C333.244 210.585 331.024 212.395 329.298 214.617C329.244 215.17 329.149 215.336 329.549 215.78C330.768 217.136 334.365 217.072 336.002 217.14C333.307 219.031 330.831 221.33 328.326 223.465C323.752 227.364 319.24 231.286 314.841 235.383L312.547 234.431C309.529 233.063 306.613 231.824 303.307 231.341Q324.351 213.431 345.058 195.13Z"/>
	<path fill="#C7CBD0" transform="matrix(1.72117 0 0 1.72261 0.000244141 0)" d="M346.168 218.684C350.481 219.438 354.649 220.386 358.882 221.506C349.672 228.592 341 236.724 332.372 244.508L329.811 246.795C327.378 244.097 324.729 241.869 321.808 239.721C330.185 233.113 338.109 225.685 346.168 218.684Z"/>
	<path fill="#C7CBD0" transform="matrix(1.72117 0 0 1.72261 0.000244141 0)" d="M159.415 307.485C161.266 308.226 165.587 312.191 168.692 313.666C159.164 321.381 149.991 329.505 140.757 337.566C137.378 335.861 134.142 333.934 130.875 332.027C140.64 324.233 149.945 315.653 159.415 307.485Z"/>
	<path fill="#C7CBD0" transform="matrix(1.72117 0 0 1.72261 0.000244141 0)" d="M150.982 290.475C151.115 290.556 151.293 290.59 151.38 290.719C152.195 291.923 152.811 295.566 153.359 297.166C153.819 298.508 154.436 299.73 155.118 300.971L137.051 316.49C133.179 319.878 129.396 323.55 125.274 326.621C124.478 326.576 124.263 326.193 123.679 325.674C121.657 323.522 119.738 321.307 117.842 319.045C129.176 309.859 139.846 299.893 150.982 290.475Z"/>
	<path fill="#C7CBD0" transform="matrix(1.72117 0 0 1.72261 0.000244141 0)" d="M198.199 311.268L198.655 311.428C197.62 313.46 167.094 339.161 162.807 342.85C159.124 342.246 155.413 341.905 151.724 341.272C151.149 341.125 150.609 340.927 150.055 340.717L149.936 340.337C151.295 338.288 176.809 316.201 178.293 315.651C179.764 315.105 182.396 315.696 184.084 315.432C188.994 314.662 193.599 313.096 198.199 311.268Z"/>
	<path fill="#C7CBD0" transform="matrix(1.72117 0 0 1.72261 0.000244141 0)" d="M438.498 89.2241C439.043 89.1106 439.547 89.0627 440.104 89.1245C442.665 89.4087 447.927 91.5464 449.524 93.601C449.178 95.7119 423.808 116.204 420.295 119.505Q414.619 119.89 409.03 120.95Q404.208 122.259 399.341 123.39C403.809 120.177 437.575 91.8066 438.498 89.2241Z"/>
	<path fill="#C7CBD0" transform="matrix(1.72117 0 0 1.72261 0.000244141 0)" d="M367.298 224.394C370.581 226.481 374.292 227.759 377.56 229.959C366.224 240.004 354.427 249.472 343.217 259.689L341.299 261.582C339.328 258.531 337.353 255.447 334.949 252.715C345.72 243.252 356.715 234.071 367.298 224.394Z"/>
	<path fill="#C7CBD0" transform="matrix(1.72117 0 0 1.72261 0.000244141 0)" d="M420.334 300.416C420.567 300.468 428.398 305.118 429.285 305.682C428.329 308.665 396.908 334.201 392.378 338.793C389.026 336.952 385.779 335.003 382.539 332.974Q401.714 317.017 420.334 300.416Z"/>
	<path fill="#C7CBD0" transform="matrix(1.72117 0 0 1.72261 0.000244141 0)" d="M155.612 224.547L158.988 224.417C152.979 229.927 146.696 235.178 140.537 240.522L109.093 267.789C108.472 268.194 108.142 268.566 107.389 268.543C107.324 268.334 107.278 268.227 107.254 268.019C106.83 264.334 113.164 251.802 115.567 248.805C118.348 245.337 121.945 242.649 125.207 239.665C136.86 229.005 139.264 226.253 155.612 224.547Z"/>
	<path fill="#C7CBD0" transform="matrix(1.72117 0 0 1.72261 0.000244141 0)" d="M383.91 234.53C386.464 235.205 390.092 239.685 392.036 241.64L352.157 276.225L349.865 278.339Q347.782 273.066 345.092 268.075C358.357 257.325 371.036 245.749 383.91 234.53Z"/>
	<path fill="#C7CBD0" transform="matrix(1.72117 0 0 1.72261 0.000244141 0)" d="M412.266 283.419C412.319 283.441 412.379 283.451 412.427 283.484C413.784 284.406 415.785 291.811 416.38 293.714C411.646 296.896 407.563 301.041 403.294 304.802L386.004 319.833C383.045 322.446 380.087 325.647 376.777 327.781C376.069 327.776 375.79 327.293 375.279 326.826C373.358 324.621 371.467 322.386 369.402 320.315C376.828 313.464 384.709 306.989 392.355 300.383C398.914 294.718 405.402 288.705 412.266 283.419Z"/>
	<path fill="#C7CBD0" transform="matrix(1.72117 0 0 1.72261 0.000244141 0)" d="M405.446 264.619L405.877 264.809C407.917 267.349 408.856 271.843 409.884 274.968C405.209 278.328 400.885 282.304 396.57 286.111C389.121 292.681 381.758 299.437 374.162 305.831C371.361 308.189 368.099 311.551 364.849 313.144L359.919 304.356C364.418 300.138 369.21 296.184 373.867 292.141Q389.729 278.463 405.446 264.619Z"/>
	<path fill="#C7CBD0" transform="matrix(1.72117 0 0 1.72261 0.000244141 0)" d="M396.722 247.989C399.152 249.656 401.152 254.165 402.701 256.732C387.984 269.814 372.904 282.542 358.024 295.443C357.432 295.792 357.428 295.902 356.772 295.745C354.78 293.617 353.878 288.847 352.886 286.015L396.722 247.989Z"/>
	<path fill="#C7CBD0" transform="matrix(1.72117 0 0 1.72261 0.000244141 0)" d="M243.568 283.1L243.852 283.405C243.828 286.333 236.718 296.374 234.688 299.397C221.027 319.734 201.661 336.839 177.079 341.673L176.853 341.422C176.954 340.803 177.42 340.433 177.854 340.021C179.578 338.381 181.542 336.945 183.354 335.4L193.407 326.66L223.449 300.409C230.137 294.637 237.067 289.078 243.568 283.1Z"/>
	<path fill="#C7CBD0" transform="matrix(1.72117 0 0 1.72261 0.000244141 0)" d="M457.414 292.097L458.209 292.197C458.563 292.505 458.836 292.774 459.069 293.187C460.488 295.704 461.174 300.675 460.393 303.445C459.377 306.107 420.205 338.235 414.611 343.592C411.635 343.383 408.708 343.131 405.762 342.659C404.097 342.451 402.437 342.072 400.789 341.755Q420.213 324.681 439.933 307.949C443.384 305.074 447.689 303.307 450.965 300.326C453.22 298.274 456.331 295.031 457.414 292.097Z"/>
	<path fill="#C7CBD0" transform="matrix(1.72117 0 0 1.72261 0.000244141 0)" d="M166.36 114.505C168.871 114.322 171.409 114.293 173.927 114.207C166.086 120.366 158.714 127.194 151.192 133.742L113.635 166.477C112.795 167.157 111.995 167.918 111.185 168.635C110.209 164.721 109.52 160.774 108.884 156.792C117.583 148.434 127.06 140.943 136.136 133.015C140.557 129.154 152.136 117.716 156.848 115.5C159.366 114.315 163.562 114.624 166.36 114.505Z"/>
	<path fill="#C7CBD0" transform="matrix(1.72117 0 0 1.72261 0.000244141 0)" d="M169.017 226.063C172.711 226.027 176.964 228.73 180.166 230.466C172.931 236.416 165.99 242.822 158.901 248.956L112.25 289.263Q109.422 291.724 106.442 293.998C106.246 289.772 105.733 285.513 105.463 281.281C112.002 275.325 118.886 269.674 125.563 263.865L169.017 226.063Z"/>
	<path fill="#C7CBD0" transform="matrix(1.72117 0 0 1.72261 0.000244141 0)" d="M186.463 235.433C189.247 236.58 191.822 240.946 193.485 243.398C187.444 247.919 182.24 253.803 175.989 257.991C171.022 261.319 165.68 261.741 160.792 266.045C156.371 269.938 154.884 275.852 150.836 280.016C146.714 284.257 141.982 287.985 137.501 291.843L114.88 311.332L113.454 312.377Q110.923 307.551 109.035 302.44L186.463 235.433Z"/>
	<path fill="#C7CBD0" transform="matrix(1.72117 0 0 1.72261 0.000244141 0)" d="M416.204 84.7423C420.629 84.5309 425.771 85.1595 430.077 86.2075C429.148 87.8118 425.796 90.3837 424.337 91.7516C415.339 100.184 405.901 108.15 396.553 116.19L353.247 153.526C350.496 155.658 347.904 158.018 345.277 160.3C348.022 153.785 349.474 146.373 353.462 140.458C358.427 133.096 367.056 127.613 373.697 121.845C387.874 109.536 402.359 97.4149 416.204 84.7423Z"/>
	<path fill="#C7CBD0" transform="matrix(1.72117 0 0 1.72261 0.000244141 0)" d="M275.786 0L307.967 0C312.893 0.921301 317.805 0.978172 322.736 1.70524C330.959 2.91772 339.244 4.9554 347.275 7.10175Q351.01 8.08897 354.706 9.21127Q358.402 10.3336 362.055 11.5895Q365.708 12.8454 369.313 14.2332Q372.918 15.621 376.47 17.139Q380.022 18.6569 383.517 20.3029Q387.011 21.9489 390.444 23.7209Q393.876 25.4928 397.242 27.3884Q400.608 29.2839 403.903 31.3005Q407.198 33.3171 410.417 35.4521Q413.636 37.5872 416.776 39.8378Q419.916 42.0884 422.971 44.4516Q426.027 46.8149 428.995 49.2876Q431.963 51.7603 434.839 54.3393Q437.715 56.9183 440.496 59.6001Q443.276 62.2819 445.957 65.0629Q448.639 67.844 451.217 70.7207C455.476 75.495 459.726 79.901 463.357 85.2213C463.856 85.9523 464.508 86.7412 464.615 87.6441L464.46 88.0667C463.29 87.4713 462.33 86.5013 461.245 85.7606C459.189 84.3573 456.982 83.1563 454.766 82.029C437.154 73.069 417.271 69.0268 398.023 75.3157C373.271 83.4026 357.791 102.712 346.383 125.263C341.854 134.216 338.071 143.776 334.721 153.233C330.518 165.102 327.172 180.917 318.847 190.538C317.187 192.456 315.072 194.136 313.054 195.666C311.156 197.104 308.897 198.863 306.649 199.639C305.894 199.899 305.631 199.956 304.876 199.726C304.476 198.687 304.956 197.262 305.222 196.225C306.899 189.681 309.304 183.274 311.298 176.815L323.454 137.207C326.257 128.184 331.607 115.343 331.488 106.086C331.374 97.1338 319.415 78.8128 311.316 75.239C306.859 73.2727 302.077 74.8698 297.807 76.5794C293.296 78.3854 288.958 80.5804 284.407 82.2942Q277.389 84.9144 270.241 87.1536Q263.093 89.3928 255.835 91.2446Q248.576 93.0964 241.229 94.5554Q233.882 96.0145 226.467 97.0765C211.823 99.2118 196.75 100.239 181.976 101.059C170.77 101.68 159.39 101.834 148.274 103.517C127.832 106.614 108.539 115.793 100.071 135.753C94.9334 147.863 95.2396 162.583 100.17 174.704C105.342 187.418 115.582 196.969 128.158 202.258C134.352 204.863 144.707 207.413 151.256 204.792C153.787 203.779 155.845 201.904 156.873 199.361C159.535 192.775 156.42 185.32 155.556 178.667C153.606 163.656 164.982 153.667 177.503 148.196C195.077 140.516 213.75 138.592 232.486 135.68C243.747 133.929 254.951 131.866 266.221 130.157C264.423 138.986 261.469 147.34 258.762 155.909L249.19 187.032L236.666 228.557C232.68 241.786 228.932 255.15 222.935 267.649C218.441 277.016 212.234 287.412 203.395 293.304C200.025 295.55 195.737 297.158 191.639 296.316Q191.158 296.213 190.689 296.064Q190.22 295.914 189.768 295.719Q189.316 295.523 188.886 295.284Q188.456 295.045 188.051 294.764Q187.647 294.484 187.272 294.164Q186.897 293.845 186.556 293.49Q186.215 293.136 185.91 292.749Q185.606 292.362 185.341 291.947C183.815 289.594 183.074 286.249 183.684 283.484C184.124 281.491 185.685 279.43 187.438 278.403C195.068 273.929 206.775 281.865 210.59 269.121C213.392 259.758 209.632 247.295 205.03 238.934Q204.407 237.801 203.728 236.7Q203.049 235.599 202.316 234.533Q201.584 233.467 200.799 232.439Q200.015 231.411 199.18 230.423Q198.345 229.436 197.462 228.49Q196.579 227.545 195.651 226.645Q194.722 225.745 193.75 224.892Q192.778 224.039 191.764 223.236Q190.751 222.432 189.699 221.68Q188.647 220.928 187.559 220.229Q186.471 219.53 185.349 218.886Q184.228 218.242 183.076 217.654Q181.924 217.067 180.744 216.537Q179.564 216.008 178.359 215.537Q177.155 215.067 175.928 214.657Q174.701 214.247 173.456 213.899C157.736 209.444 141.567 212.152 127.499 220.131C111.763 229.056 100.475 245.058 95.757 262.346C93.8795 269.226 93.1948 276.078 93.2536 283.197C93.2716 285.374 94.1145 293.878 93.5249 295.242L93.1912 295.334C88.0256 284.419 84.8175 271.115 82.3118 259.325Q81.7477 256.724 81.2485 254.11Q80.7493 251.496 80.3152 248.87Q79.8811 246.244 79.5125 243.608Q79.1439 240.973 78.8409 238.329Q78.538 235.684 78.3008 233.034Q78.0637 230.383 77.8926 227.727Q77.7215 225.071 77.6165 222.412Q77.5115 219.752 77.4726 217.091Q77.4338 214.43 77.4611 211.769Q77.4884 209.107 77.582 206.448Q77.6755 203.788 77.8351 201.131Q77.9947 198.475 78.2204 195.823Q78.446 193.171 78.7376 190.526Q79.0291 187.88 79.3863 185.243Q79.7435 182.605 80.1662 179.978Q80.5889 177.35 81.0769 174.734Q81.5648 172.118 82.1176 169.514Q82.6704 166.911 83.2878 164.322Q83.9052 161.733 84.5868 159.161Q85.2684 156.588 86.0138 154.033Q86.7591 151.478 87.5678 148.943Q88.3764 146.407 89.2479 143.893Q90.1194 141.378 91.0531 138.886Q91.9869 136.394 92.9823 133.925Q93.9777 131.457 95.0342 129.014Q96.0907 126.572 97.2076 124.156Q98.3245 121.741 99.5012 119.353Q100.678 116.966 101.913 114.609Q103.149 112.252 104.443 109.926Q105.737 107.601 107.088 105.308Q108.44 103.015 109.847 100.757Q111.255 98.4986 112.719 96.2759Q114.053 94.237 115.433 92.2292Q116.814 90.2213 118.239 88.2456Q119.665 86.2699 121.136 84.3273Q122.607 82.3848 124.122 80.4764Q125.636 78.568 127.194 76.6948Q128.753 74.8216 130.353 72.9845Q131.954 71.1475 133.596 69.3476Q135.238 67.5476 136.921 65.7858Q138.604 64.0239 140.327 62.301Q142.049 60.5781 143.811 58.8951Q145.573 57.2121 147.373 55.5699Q149.173 53.9276 151.009 52.327Q152.846 50.7264 154.719 49.1683Q156.593 47.6102 158.501 46.0953Q160.409 44.5805 162.351 43.1097Q164.294 41.6389 166.269 40.213Q168.245 38.7871 170.253 37.4067Q172.26 36.0264 174.299 34.6924Q176.338 33.3584 178.407 32.0714Q180.475 30.7844 182.573 29.5451Q184.671 28.3058 186.796 27.1149Q188.921 25.9239 191.074 24.7819Q193.226 23.6399 195.403 22.5475Q197.581 21.455 199.783 20.4127Q201.986 19.3704 204.211 18.3788Q206.436 17.3872 208.684 16.4468Q210.931 15.5064 213.2 14.6177Q215.468 13.729 217.757 12.8924Q220.045 12.0558 222.352 11.2719Q224.658 10.4879 226.982 9.75696Q229.306 9.02601 231.647 8.34845Q233.987 7.67088 236.342 7.04707Q248.777 3.67134 261.545 1.94271C266.287 1.25514 271.094 0.989411 275.786 0Z"/>
	<path fill="#C7CBD0" transform="matrix(1.72117 0 0 1.72261 0.000244141 0)" d="M487.88 129.032C489.091 130.116 489.885 130.872 490.11 132.53C491.683 134.303 492.186 137.407 493.114 139.585C502.491 161.577 507.977 196.966 506.606 220.608C504.772 252.222 498.647 280.183 484.615 308.72C481.345 315.369 477.929 321.936 473.957 328.197C471.35 332.306 468.429 336.261 465.591 340.212C460.134 347.811 454.224 354.812 447.876 361.673C445.26 364.5 442.824 367.291 439.933 369.854C434.472 374.697 429.149 379.718 423.369 384.187Q420.974 386.013 418.531 387.773Q416.087 389.532 413.597 391.225Q411.107 392.918 408.571 394.542Q406.036 396.167 403.457 397.721Q400.878 399.276 398.258 400.76Q395.638 402.244 392.978 403.657Q390.319 405.069 387.622 406.408Q384.925 407.748 382.193 409.013Q379.461 410.279 376.695 411.47Q373.929 412.66 371.132 413.776Q368.335 414.891 365.509 415.929Q362.682 416.968 359.829 417.929Q356.975 418.891 354.097 419.774Q351.218 420.658 348.316 421.462Q345.415 422.267 342.492 422.993Q339.57 423.718 336.629 424.364C331.635 425.444 326.522 426.56 321.455 427.215C316.585 427.843 311.737 428.06 306.905 429L277.782 429C271.937 427.024 264.76 427.369 258.613 426.474C249.982 425.217 240.869 423.027 232.453 420.706C206.796 413.633 178.753 398.908 158.176 382.048C150.911 376.096 144.257 369.564 137.643 362.914C130.623 355.857 121.355 345.839 116.456 337.222C117.008 337.278 117.354 337.422 117.82 337.73C119.713 338.982 121.389 340.616 123.2 341.986C125.441 343.679 127.987 345.113 130.424 346.509Q134.195 348.682 138.221 350.338Q142.246 351.993 146.455 353.103C157.498 356.035 168.406 356.076 179.66 354.48C216.041 349.321 247.418 325.955 267.539 295.878Q271.781 289.617 275.41 282.982Q279.038 276.347 282.02 269.397C283.941 264.838 285.259 259.946 287.445 255.516C288.009 254.372 288.81 253.032 289.973 252.429C291.815 251.474 294.743 252.527 296.538 253.206C319.974 262.075 326.239 290.996 335.479 311.45C343.645 329.527 355.648 343.433 374.531 350.518C394.634 358.061 421.745 358.768 441.491 349.717C454.737 343.644 464.526 333.105 469.563 319.408C473.274 309.318 474.479 296.152 469.804 286.207C468.012 282.395 465.237 279.377 461.182 277.992C449.225 273.907 447.384 289.089 438.835 293.176C437.049 294.03 435.044 294.436 433.138 293.699C425.879 290.892 421.669 271.755 419.258 264.606Q417.652 259.97 415.508 255.556C405.321 234.214 388.31 218.262 365.902 210.331C371.169 204.392 376.041 198.512 379.665 191.394C388.456 174.126 392.166 147.576 411.826 138.891C418.372 135.999 425.787 136.132 432.408 138.692C442.997 142.787 449.292 151.818 449.333 163.23C449.352 168.48 447.976 174.524 450.232 179.476C451.673 182.636 454.543 184.248 457.705 185.382C460.479 186.376 463.497 186.135 466.136 184.864C474.457 180.859 482.389 165.555 485.287 156.962C487.275 151.066 490.499 134.347 487.88 129.032Z"/>
</svg>
